<svg width="159" height="159" viewBox="0 0 159 159" fill="none" xmlns="http://www.w3.org/2000/svg">
<circle cx="79.5" cy="79.5" r="79.5" fill="#0F141A"/>
<g clip-path="url(#clip0_534_259)">
<path d="M78.9922 23.6016C53.2658 23.6016 32.4102 44.4573 32.4102 70.1836C32.4647 83.9911 38.6408 97.0635 49.2734 105.873C45.9636 123.082 46.6986 135.346 51.043 135.398C54.5811 135.395 59.8168 127.287 64.5582 114.469C69.2187 115.99 74.09 116.764 78.9922 116.766C83.8959 116.764 88.7689 115.989 93.4308 114.467C98.1698 127.279 103.403 135.387 106.941 135.398C111.31 135.397 112.055 123.111 108.734 105.853C119.353 97.0443 125.52 83.9807 125.574 70.1836C125.574 44.4573 104.718 23.6016 78.9922 23.6016ZM64.4762 60.4405H65.559C66.268 60.4405 66.9229 60.635 67.5042 60.9482C68.7929 61.6423 69.6759 62.9865 69.6759 64.5583V88.9311C69.6759 91.212 67.8398 93.048 65.559 93.048H64.4762C62.1954 93.048 60.3594 91.212 60.3594 88.9311V71.0544V64.5583C60.3594 62.2775 62.1954 60.4405 64.4762 60.4405ZM92.4255 60.4405H93.5072C95.788 60.4405 97.6249 62.2774 97.6249 64.5583V71.0543V88.931C97.6249 91.2119 95.788 93.0479 93.5072 93.0479H92.4255C90.1446 93.0479 88.3086 91.2119 88.3086 88.931V64.5583C88.3086 62.9863 89.1904 61.6412 90.4794 60.9472C91.0605 60.6344 91.7167 60.4405 92.4255 60.4405Z" fill="#14CB42"/>
<path fill-rule="evenodd" clip-rule="evenodd" d="M120.555 122.387C120.58 122.056 120.179 121.874 119.947 122.11L118.891 123.186L117.388 123.068C117.057 123.042 116.874 123.444 117.111 123.676L118.187 124.732L118.069 126.235C118.043 126.566 118.444 126.749 118.677 126.512L119.733 125.436L121.236 125.554C121.567 125.58 121.749 125.179 121.512 124.946L120.437 123.89L120.555 122.387Z" fill="white"/>
<path fill-rule="evenodd" clip-rule="evenodd" d="M122.555 32.3871C122.58 32.0563 122.179 31.8737 121.947 32.1104L120.891 33.1863L119.388 33.0683C119.057 33.0424 118.874 33.4435 119.111 33.6761L120.187 34.7322L120.069 36.2353C120.043 36.5661 120.444 36.7487 120.677 36.512L121.733 35.4361L123.236 35.5541C123.567 35.58 123.749 35.1788 123.512 34.9463L122.437 33.8901L122.555 32.3871Z" fill="white"/>
</g>
<defs>
<clipPath id="clip0_534_259">
<rect width="111.797" height="111.797" fill="white" transform="translate(23.6016 23.6016)"/>
</clipPath>
</defs>
</svg>
